<?xml version="1.0" encoding="UTF-8" standalone="no"?>
<!-- Created with Inkscape (http://www.inkscape.org/) -->

<svg
   version="1.1"
   id="svg55"
   width="180"
   height="180"
   viewBox="0 0 180 180"
   sodipodi:docname="logo.svg"
   inkscape:version="1.1.2 (0a00cf5339, 2022-02-04)"
   xmlns:inkscape="http://www.inkscape.org/namespaces/inkscape"
   xmlns:sodipodi="http://sodipodi.sourceforge.net/DTD/sodipodi-0.dtd"
   xmlns="http://www.w3.org/2000/svg"
   xmlns:svg="http://www.w3.org/2000/svg">
  <defs
     id="defs59" />
  <sodipodi:namedview
     id="namedview57"
     pagecolor="#ffffff"
     bordercolor="#666666"
     borderopacity="1.0"
     inkscape:pageshadow="2"
     inkscape:pageopacity="0.0"
     inkscape:pagecheckerboard="0"
     showgrid="false"
     inkscape:zoom="2.6208333"
     inkscape:cx="-17.933227"
     inkscape:cy="89.856916"
     inkscape:window-width="2172"
     inkscape:window-height="1896"
     inkscape:window-x="1580"
     inkscape:window-y="644"
     inkscape:window-maximized="0"
     inkscape:current-layer="g61" />
  <g
     inkscape:groupmode="layer"
     inkscape:label="Image"
     id="g61">
    <g
       id="g243"
       transform="matrix(1.9364126,0,0,1.9090473,-84.001206,-82.727827)">
      <path
         style="fill:#d4e5f1"
         d="M 80.991301,126.47712 C 80.446086,125.04309 80,122.75997 80,121.40352 c 0,-3.41625 -2.596043,-4.07829 -6.031693,-1.53821 -4.24576,3.13903 -6.838176,2.67882 -11.680455,-2.07352 -4.791269,-4.70227 -5.295251,-7.24137 -2.214674,-11.15769 2.936752,-3.73348 2.172432,-5.97898 -2.281539,-6.70295 C 51.696961,98.940488 50.878803,97.658168 51.209343,89.614542 51.525351,81.924557 51.35881,82.112972 59.25,80.517798 62.563324,79.848022 62.902482,77.12671 60,74.5 56.801942,71.605798 57.494149,68.091128 62.208208,63.287852 66.929626,58.477077 69.795993,57.907768 73.727129,61 c 3.466681,2.726892 5.131414,2.511278 5.790669,-0.75 1.610535,-7.967178 1.314379,-7.723194 9.76189,-8.042221 7.533046,-0.284491 7.763929,-0.223257 8.729011,2.3151 C 98.553914,55.956905 99,58.240028 99,59.596484 c 0,3.416247 2.59604,4.078291 6.03169,1.538205 4.32278,-3.195965 6.98952,-2.70771 11.7601,2.153163 4.70654,4.795608 5.17299,7.21591 2.13503,11.078049 -2.93675,3.733476 -2.17243,5.978977 2.28154,6.702949 6.09468,0.990662 6.91284,2.272982 6.5823,10.316608 -0.31601,7.689985 -0.14947,7.50157 -8.04066,9.096742 -3.31332,0.66978 -3.65248,3.39109 -0.75,6.0178 3.25993,2.9502 2.52732,6.56606 -2.28785,11.29179 -4.79302,4.704 -7.58197,5.24237 -11.43928,2.20821 -3.4639,-2.72471 -5.12188,-2.51183 -5.841289,0.75 -1.773693,8.04199 -1.386316,7.72314 -9.770534,8.04222 -7.469267,0.28426 -7.705449,0.22119 -8.669746,-2.3151 z M 86,103.93426 C 86,95.593764 86.700161,95 96.535184,95 H 105 V 92 89 H 96.7 C 87.687396,89 86,88.210098 86,83.99113 c 0,-4.993661 1.701094,-5.912887 11.5,-6.214295 8.85951,-0.272514 9,-0.31586 9,-2.776835 v -2.5 h -14 -14 l -0.275146,16.96328 c -0.15133,9.329803 -0.05295,17.5423 0.218615,18.25 C 78.71701,108.42611 80.51225,109 82.468615,109 H 86 Z"
         id="path257" />
      <path
         style="fill:#a9cbe4"
         d="M 82.035184,126.06574 C 81.465833,125.0019 81,123.28791 81,122.25687 c 0,-1.03104 -0.653556,-2.74812 -1.452347,-3.81574 -1.430833,-1.91238 -1.511534,-1.9078 -5.448118,0.30887 -5.463484,3.07646 -7.103297,2.85457 -11.396587,-1.54216 C 58.539638,112.94422 58.154794,110.63739 61,107 64.313793,102.76356 63.012664,99 58.234259,99 53.180143,99 52,97.422153 52,90.664816 52,83.890195 53.039628,82 56.765741,82 60.000124,82 63,80.254497 63,78.372546 63,77.516148 62.1,75.671294 61,74.272871 58.074213,70.553335 58.530067,67.864773 62.792163,63.702948 67.079228,59.51674 69.596033,59.107799 73.272871,62 c 1.398423,1.1 3.243277,2 4.099675,2 C 79.254497,64 81,61.000124 81,57.765741 81,54.039628 82.890195,53 89.664816,53 96.252952,53 98,54.203755 98,58.743129 c 0,1.031036 0.653556,2.74812 1.452347,3.815741 1.430833,1.912377 1.511533,1.907802 5.448113,-0.30887 5.46349,-3.076462 7.1033,-2.854566 11.39659,1.542163 4.16331,4.263616 4.54816,6.57045 1.70295,10.207837 -3.31379,4.236442 -2.01266,8 2.76574,8 C 125.81986,82 127,83.577847 127,90.335184 127,97.109805 125.96037,99 122.23426,99 118.99988,99 116,100.7455 116,102.62745 c 0,0.8564 0.9,2.70126 2,4.09968 2.92579,3.71954 2.46993,6.4081 -1.79216,10.56992 -4.28707,4.18621 -6.80387,4.59515 -10.48071,1.70295 -1.39842,-1.1 -3.24328,-2 -4.09968,-2 C 99.745503,117 98,119.99988 98,123.23426 98,126.96037 96.109805,128 89.335184,128 c -5.170385,0 -6.445658,-0.33791 -7.3,-1.93426 z M 86.763718,105 c 0.539089,-9.198814 0.201369,-8.887596 9.995597,-9.211203 L 105.5,95.5 V 92 88.5 L 96.759315,88.211203 C 88.266382,87.930592 88.000019,87.848257 87.36206,85.306426 86.153375,80.490642 87.808856,79.52841 97.846241,79.212602 106.62739,78.936319 107.0047,78.82946 107.602,76.449616 108.80292,71.664759 106.9702,71 92.577555,71 83.661679,71 79.011915,71.388085 78.2,72.2 c -1.724102,1.724102 -1.682692,34.91731 0.04572,36.64572 0.685144,0.68514 2.822644,1.11264 4.75,0.95 3.397373,-0.2867 3.512329,-0.43301 3.768001,-4.79572 z"
         id="path255" />
      <path
         style="fill:#89b7da"
         d="m 83.211931,126.75 c -0.568127,-0.6875 -1.350596,-2.94969 -1.738819,-5.0271 -1.016087,-5.43713 -3.530458,-6.43555 -8.20596,-3.25847 C 71.21487,119.859 69.022504,121 68.395226,121 67.195041,121 59,112.56188 59,111.32609 c 0,-0.39522 1.160602,-2.39334 2.579115,-4.44025 3.250935,-4.6911 2.20886,-7.329084 -3.302017,-8.358952 C 52.847559,97.512221 52,96.428399 52,90.5 c 0,-5.972235 1.053913,-7.309935 6.448925,-8.185425 5.344337,-0.867266 6.362883,-3.535634 3.13019,-8.200412 C 60.160602,72.067248 59,69.94788 59,69.404457 59,68.174102 67.243326,60 68.484101,60 c 0.499619,0 2.583147,1.160602 4.630062,2.579115 4.664778,3.232693 7.333146,2.214147 8.200412,-3.13019 C 82.190065,54.053913 83.527765,53 89.5,53 c 5.928399,0 7.012221,0.847559 8.026888,6.277098 1.016087,5.437134 3.530462,6.435554 8.205962,3.258468 C 107.78513,61.141005 109.9775,60 110.60477,60 111.80496,60 120,68.438122 120,69.673906 c 0,0.395226 -1.1606,2.393342 -2.57912,4.440257 -3.25093,4.691101 -2.20885,7.329081 3.30202,8.358949 C 126.15244,83.487779 127,84.571601 127,90.5 c 0,5.972235 -1.05391,7.309935 -6.44892,8.185425 -5.34434,0.867266 -6.36289,3.535635 -3.1302,8.200415 1.41852,2.04691 2.57912,4.13044 2.57912,4.63006 0,1.24077 -8.1741,9.4841 -9.40446,9.4841 -0.54342,0 -2.66279,-1.1606 -4.7097,-2.57912 -4.66478,-3.23269 -7.333149,-2.21414 -8.200415,3.1302 -0.323754,1.99506 -1.11552,4.26223 -1.759479,5.03815 -1.485346,1.78973 -11.265695,1.91341 -12.714015,0.16077 z m 4.585602,-23.49288 C 88.140238,96.066429 87.973834,96.173115 99.5,95.754332 L 106.5,95.5 V 92 88.5 l -9,-0.5 -9,-0.5 V 84 80.5 L 96,80.24697 c 11.58015,-0.390684 12.17242,-0.643005 11.80836,-5.030669 L 107.5,71.5 h -15 -15 l -0.273955,17.966382 c -0.150676,9.88151 -0.04277,18.568858 0.2398,19.305208 0.354164,0.92294 1.992449,1.24402 5.273955,1.03362 L 87.5,109.5 Z"
         id="path253" />
      <path
         style="fill:#75acd5"
         d="m 82.655958,125.29384 c -0.278654,-0.98661 -0.801088,-3.25676 -1.160963,-5.04478 -0.862447,-4.28501 -4.348118,-5.29635 -8.095324,-2.3488 -3.730752,2.93461 -6.068822,2.63059 -9.999671,-1.30026 -3.950574,-3.95057 -4.183327,-5.69118 -1.302098,-9.73749 2.575149,-3.61646 1.916323,-7.620529 -1.363132,-8.284534 -8.59097,-1.739451 -7.856166,-0.927829 -7.529768,-8.316953 L 53.5,83.582737 57.421689,82.771324 C 64.242679,81.360033 65.649239,78.665285 62,74 59.197107,70.416706 59.538156,67.83997 63.297607,64.196167 67.109093,60.501929 69.701837,60.191025 73.272871,63 c 4.576894,3.600186 7.085959,2.248495 8.498453,-4.578311 L 82.582737,54.5 89.210068,54.206163 c 7.212285,-0.319771 6.856862,-0.600203 8.294937,6.544779 0.862447,4.285009 4.348115,5.296352 8.095325,2.3488 3.73075,-2.934611 6.06882,-2.630591 9.99967,1.300258 3.94287,3.942868 4.18234,5.692563 1.32779,9.701411 -1.13972,1.600583 -1.92403,3.679582 -1.74293,4.619997 0.36121,1.875603 3.76008,3.872831 8.11014,4.765637 2.76191,0.566857 2.7915,0.652697 2.5,7.251932 l -0.295,6.678286 -3.92169,0.811413 C 114.75732,99.639967 113.35076,102.33471 117,107 c 2.80289,3.58329 2.46184,6.16003 -1.29761,9.80383 -3.81148,3.69424 -6.40423,4.00515 -9.97526,1.19617 -4.5769,-3.60019 -7.08596,-2.2485 -8.498454,4.57831 l -0.811413,3.92169 -6.627331,0.29384 c -5.667369,0.25127 -6.700717,0.034 -7.133974,-1.5 z M 88.202283,103.75 88.5,97.5 l 9,-0.5 9,-0.5 0.30478,-4.19441 c 0.29412,-4.047611 0.18912,-4.213942 -3,-4.752488 C 101.98715,87.246159 97.8,86.883644 94.5,86.747512 88.555003,86.502269 88.5,86.472499 88.5,83.5 v -3 L 98,80 107.5,79.5 107.8075,75.25 108.115,71 H 92.557498 77 V 90.5 110 h 5.452283 5.452282 z"
         id="path251" />
      <path
         style="fill:#4e94c9"
         d="M 83.035184,125.06574 C 82.465833,124.0019 82,122.0669 82,120.76574 82,115.88943 77.222,114.46433 72.727129,118 c -3.558294,2.79896 -4.791106,2.5429 -9.124822,-1.89523 -3.952083,-4.0473 -4.237878,-6.50248 -1.063581,-9.13691 1.787123,-1.48318 1.926853,-6.5485 0.211274,-7.658843 C 62.0625,98.864058 59.7,98.05 57.5,97.5 l -4,-1 -0.299866,-5.748718 C 52.873946,84.497931 52.729891,84.66363 60.5,82.354668 c 3.842388,-1.141802 4.550033,-5.204308 1.567095,-8.9965 -2.81164,-3.574421 -2.650579,-4.382515 1.725068,-8.65522 4.389913,-4.286636 5.284754,-4.445288 9.112173,-1.615555 C 76.77705,65.950615 80.220484,65.303635 81.352949,61.5 83.604435,53.937884 83.537429,54 89.443377,54 95.360283,54 97,55.352777 97,60.234259 c 0,4.876313 4.778,6.301407 9.27287,2.765741 3.5583,-2.798955 4.79111,-2.5429 9.12482,1.895228 3.95209,4.0473 4.23788,6.502479 1.06358,9.136912 -1.78712,1.48318 -1.92685,6.548497 -0.21127,7.658843 0.6875,0.444959 3.05,1.259017 5.25,1.809017 l 4,1 0.29987,5.748718 c 0.32618,6.253351 0.47024,6.087652 -7.29987,8.396614 -3.84239,1.141802 -4.55003,5.204308 -1.5671,8.996498 2.81165,3.57442 2.65058,4.38252 -1.72506,8.65522 -4.38992,4.28664 -5.28476,4.44529 -9.11218,1.61556 -3.87271,-2.86323 -7.316144,-2.21625 -8.448609,1.58739 -2.251486,7.56212 -2.18448,7.5 -8.090428,7.5 -4.400644,0 -5.691096,-0.38275 -6.521439,-1.93426 z m 4.782493,-15.34605 c 0.584411,-0.70418 1.202011,-3.74168 1.372445,-6.75 L 89.5,97.5 97.968156,97.206033 C 106.90668,96.895737 107.9583,96.343913 107.98469,91.95 108.00966,87.791275 106.29155,87 97.236642,87 H 88.873283 L 89.186642,83.75 89.5,80.5 99,80 l 9.5,-0.5 0.31823,-3.315324 C 109.37426,70.391943 108.34504,70 92.577555,70 82.883901,70 78.020479,70.379521 77.2,71.2 c -1.689908,1.689908 -1.689908,36.91009 0,38.6 1.596048,1.59605 9.274624,1.53797 10.617677,-0.0803 z"
         id="path249" />
      <path
         style="fill:#3887c2"
         d="m 84.211931,125.75 c -0.568127,-0.6875 -1.354968,-2.973 -1.748536,-5.07889 -0.840437,-4.49699 -4.433284,-6.9016 -7.291054,-4.87973 -6.144767,4.34742 -6.689393,4.37969 -10.554985,0.62548 -4.193925,-4.07309 -4.410267,-5.49458 -1.465623,-9.62995 3.103332,-4.35823 1.687312,-7.94141 -3.670047,-9.28691 -5.805007,-1.457927 -6.483315,-2.172178 -6.466373,-6.809017 0.0202,-5.528257 0.660149,-6.317581 5.97076,-7.364423 6.175364,-1.217304 7.380776,-4.421169 3.700892,-9.836605 -2.591523,-3.813768 -2.591655,-3.815064 -0.665372,-6.52028 1.059667,-1.488165 3.002355,-3.410572 4.317086,-4.272016 2.239674,-1.467491 2.629279,-1.403953 6.178111,1.00754 5.387617,3.660981 8.594659,2.445111 9.80977,-3.719126 1.044736,-5.299923 1.840257,-5.950501 7.300995,-5.97076 4.772575,-0.01771 5.922125,1.032768 6.90905,6.313577 0.840437,4.496992 4.433285,6.901598 7.291055,4.879728 6.14477,-4.347416 6.68939,-4.37969 10.55498,-0.625474 4.19393,4.073089 4.41027,5.494574 1.46563,9.629946 -3.10333,4.358227 -1.68732,7.94141 3.67004,9.28691 5.74687,1.443324 6.48169,2.177643 6.48169,6.47723 0,4.621424 -0.80463,7.020773 -2.35699,7.028347 -0.62865,0.0031 -2.827,0.47325 -4.88522,1.044852 -5.03358,1.397912 -5.81913,4.493781 -2.41238,9.507261 2.36178,3.47566 2.42299,3.86614 0.95693,6.10363 -0.86144,1.31473 -2.8042,3.27191 -4.31724,4.34929 l -2.75098,1.95887 -3.83368,-2.6016 c -5.41208,-3.67274 -8.513459,-2.51023 -9.727,3.64605 -0.486369,2.46734 -1.399362,4.81668 -2.028874,5.22076 -1.880361,1.20699 -9.320326,0.86133 -10.432635,-0.48469 z m 4.585786,-21.5 0.297718,-6.25 h 7.761153 c 9.616182,0 11.412212,-1.071079 10.966302,-6.539884 L 107.5,87.5 98.5,87 c -8.8,-0.488889 -9,-0.555556 -9,-3 0,-2.45614 0.166667,-2.508772 9.5,-3 l 9.5,-0.5 v -5 -5 h -16 -16 l -0.272871,18.969207 c -0.15008,10.433063 -0.04302,19.568183 0.237903,20.300263 0.363125,0.94629 2.176436,1.24426 6.272872,1.03079 L 88.5,110.5 Z"
         id="path247" />
      <path
         style="fill:#0569b3"
         d="m 83.504798,122.75 c -1.211327,-6.01856 -1.667251,-6.86127 -4.241655,-7.84005 -2.093833,-0.79608 -3.27481,-0.50623 -6.421162,1.57592 -3.628004,2.4009 -3.998425,2.45773 -6.279229,0.96329 -1.333082,-0.87347 -3.100489,-2.62091 -3.927571,-3.88319 -1.383805,-2.11195 -1.307677,-2.58367 0.954154,-5.91225 1.742508,-2.56433 2.27328,-4.35292 1.823523,-6.1449 C 64.652054,98.477536 63.725896,97.806474 58.5,96.5 c -3.962118,-0.99053 -4.002833,-1.048865 -4.29913,-6.159754 -0.296653,-5.117037 -0.271817,-5.165259 3,-5.824657 6.075007,-1.22435 6.908771,-1.673767 7.889183,-4.252446 0.797858,-2.098527 0.502484,-3.28047 -1.622134,-6.490985 -2.441134,-3.688803 -2.502511,-4.070419 -1.018841,-6.334785 0.868327,-1.325235 2.66306,-3.119968 3.988295,-3.988295 2.264366,-1.48367 2.645982,-1.422293 6.334785,1.018841 3.210515,2.124618 4.392458,2.419992 6.490985,1.622134 C 81.837547,65.111266 82.293471,64.268559 83.504798,58.25 84.144693,55.070639 84.274999,55 89.5,55 c 5.225001,0 5.355307,0.07064 5.995202,3.25 1.211327,6.018559 1.667251,6.861266 4.241655,7.840053 2.093833,0.796074 3.274813,0.50623 6.421163,-1.575927 3.628,-2.4009 3.99842,-2.457726 6.27923,-0.963286 1.33308,0.873469 3.10049,2.620906 3.92757,3.883192 1.38507,2.11388 1.30626,2.585754 -0.99829,5.977199 -3.63335,5.346952 -2.36526,8.562842 4.20576,10.665848 l 4.92771,1.57708 0.29913,5.082674 c 0.29603,5.029967 0.26492,5.08957 -3,5.747578 -5.86591,1.182209 -6.47742,1.514087 -7.68886,4.172919 -1.04086,2.28444 -0.8604,3.12186 1.41309,6.55734 2.44972,3.70177 2.51147,4.08323 1.02756,6.34796 -0.86833,1.32523 -2.66306,3.11996 -3.98829,3.98829 -2.26437,1.48367 -2.64598,1.4223 -6.33479,-1.01884 -3.21051,-2.12462 -4.39246,-2.41999 -6.490983,-1.62213 -2.574404,0.97878 -3.030328,1.82149 -4.241655,7.84005 C 94.855307,125.92936 94.725001,126 89.5,126 c -5.225001,0 -5.355307,-0.0706 -5.995202,-3.25 z m 5.312879,-12.03031 c 0.584411,-0.70418 1.202011,-3.74168 1.372445,-6.75 L 90.5,98.5 98.968156,98.206033 C 108.2539,97.883684 108.961,97.442049 108.98469,91.95 109.0072,86.729748 107.69676,86 98.3,86 90.666667,86 90,85.839357 90,84 90,82.165308 90.666667,82 98.065741,82 108.45093,82 110,81.177694 110,75.664816 110,73.319167 109.46,70.86 108.8,70.2 c -1.67751,-1.677508 -30.922492,-1.677508 -32.6,0 -1.693171,1.693171 -1.693171,38.90683 0,40.6 1.61187,1.61187 11.264279,1.55043 12.617677,-0.0803 z"
         id="path245" />
    </g>
  </g>
</svg>
